<!DOCTYPE svg PUBLIC "-//W3C//DTD SVG 1.1//EN" "http://www.w3.org/Graphics/SVG/1.1/DTD/svg11.dtd">
<!-- Uploaded to: SVG Repo, www.svgrepo.com, Transformed by: SVG Repo Mixer Tools -->
<svg fill="#EFE0CA" width="800px" height="800px" viewBox="0 0 24 24" xmlns="http://www.w3.org/2000/svg">
<g id="SVGRepo_bgCarrier" stroke-width="0"/>
<g id="SVGRepo_tracerCarrier" stroke-linecap="round" stroke-linejoin="round"/>
<g id="SVGRepo_iconCarrier">
<path d="M22,3H2A1,1,0,0,0,1,4V20a1,1,0,0,0,1,1H22a1,1,0,0,0,1-1V4A1,1,0,0,0,22,3ZM15.131,5l-.666,1H9.535L8.869,5ZM21,19H3V5H6.465l1.7,2.555A1,1,0,0,0,9,8h6a1,1,0,0,0,.832-.445L17.535,5H21Zm-5-9H8a3,3,0,0,0,0,6h8a3,3,0,0,0,0-6Zm-2.816,2a2.809,2.809,0,0,0,0,2H10.816a2.809,2.809,0,0,0,0-2ZM8,12a1,1,0,1,1-1,1A1,1,0,0,1,8,12Zm8,2a1,1,0,1,1,1-1A1,1,0,0,1,16,14Z"/>
</g>
</svg>