<!DOCTYPE svg PUBLIC "-//W3C//DTD SVG 1.1//EN" "http://www.w3.org/Graphics/SVG/1.1/DTD/svg11.dtd">
<!-- Uploaded to: SVG Repo, www.svgrepo.com, Transformed by: SVG Repo Mixer Tools -->
<svg fill="#5c5c5c" version="1.1" id="Capa_1" xmlns="http://www.w3.org/2000/svg" xmlns:xlink="http://www.w3.org/1999/xlink" viewBox="-6 -6 72.00 72.00" xml:space="preserve" width="800px" height="800px" stroke="#5c5c5c">
<g id="SVGRepo_bgCarrier" stroke-width="0"/>
<g id="SVGRepo_tracerCarrier" stroke-linecap="round" stroke-linejoin="round"/>
<g id="SVGRepo_iconCarrier"> <g> <path d="M57.407,35.724l-2.85-2.85c-1.164-1.164-3.057-1.162-4.221,0L34.946,48.265l-2.121,7.779l-0.519,0.519 c-0.388,0.388-0.389,1.014-0.006,1.405l-0.005,0.02l0.019-0.005c0.194,0.191,0.446,0.288,0.699,0.288 c0.256,0,0.512-0.098,0.707-0.293l0.52-0.52l7.778-2.121l15.39-15.391C58.572,38.781,58.572,36.888,57.407,35.724z M37.255,48.784 l10.243-10.243l4.243,4.243L41.498,53.027L37.255,48.784z M36.352,50.71l3.22,3.22l-4.428,1.208L36.352,50.71z M55.993,38.531 l-2.839,2.839l-4.243-4.242l2.839-2.839c0.385-0.385,1.01-0.384,1.394-0.001l2.85,2.85C56.378,37.521,56.378,38.147,55.993,38.531z "/> <path d="M11.719,2h34v28h2V0h-36h-10v60h10h15v-2h-15V2z M3.719,58V2h6v56H3.719z"/> <path d="M40.719,24V10h-24v14H40.719z M18.719,12h20v10h-20V12z"/> <rect x="21.719" y="14" width="14" height="2"/> <rect x="21.719" y="18" width="14" height="2"/> </g> </g>
</svg>